<svg width="28" height="28" viewBox="0 0 28 28" fill="none" xmlns="http://www.w3.org/2000/svg">
<path d="M1.54533 0C0.69178 0 0 0.691675 0 1.54533V26.4547C0 27.3081 0.69178 28 1.54533 28H14.9556V17.157H11.3067V12.9312H14.9556V9.8148C14.9556 6.19822 17.1645 4.22894 20.3907 4.22894C21.9361 4.22894 23.2643 4.34403 23.6514 4.39544V8.17495L21.4138 8.17599C19.6592 8.17599 19.3195 9.00972 19.3195 10.2332V12.9312H23.5041L22.9592 17.157H19.3195V28H26.4547C27.3081 28 28 27.3081 28 26.4547V1.54533C28 0.691675 27.3081 0 26.4547 0H1.54533Z" fill="black"/>
</svg>
