<svg width="67" height="28" viewBox="0 0 67 28" fill="none" xmlns="http://www.w3.org/2000/svg">
<path d="M66.8281 14.5239C66.8281 9.75944 64.5203 6 60.1094 6C55.68 6 53 9.75944 53 14.4867C53 20.0886 56.1639 22.9175 60.705 22.9175C62.9197 22.9175 64.5947 22.415 65.8603 21.7078V17.9856C64.5947 18.6183 63.1431 19.0092 61.3006 19.0092C59.4953 19.0092 57.8947 18.3764 57.69 16.1803H66.7908C66.7908 15.9383 66.8281 14.9706 66.8281 14.5239ZM57.6342 12.7558C57.6342 10.6528 58.9183 9.77806 60.0908 9.77806C61.2261 9.77806 62.4358 10.6528 62.4358 12.7558H57.6342ZM45.9842 6C44.1603 6 42.9878 6.85611 42.3364 7.45167L42.0944 6.29778H38V27.9983L42.6528 27.0119L42.6714 21.745C43.3414 22.2289 44.3278 22.9175 45.9656 22.9175C49.2969 22.9175 52.3306 20.2375 52.3306 14.3378C52.3119 8.94056 49.2411 6 45.9842 6ZM44.8675 18.8231C43.7694 18.8231 43.1181 18.4322 42.6714 17.9483L42.6528 11.0436C43.1367 10.5039 43.8067 10.1317 44.8675 10.1317C46.5611 10.1317 47.7336 12.03 47.7336 14.4681C47.7336 16.9619 46.5797 18.8231 44.8675 18.8231ZM32 4.78306L36.6714 3.77806V0L32 0.986389V4.78306ZM32 6H36.671V22.285H32V6ZM26.3178 7.5696L26.02 6.19237H22V22.4771H26.6528V11.4407C27.7508 10.0077 29.6119 10.2682 30.1889 10.4729V6.19237C29.5933 5.96904 27.4158 5.5596 26.3178 7.5696ZM17.5597 2L13.0186 2.96778L13 17.8753C13 20.6297 15.0658 22.6583 17.8203 22.6583C19.3464 22.6583 20.4631 22.3792 21.0772 22.0442V18.2661C20.4817 18.5081 17.5411 19.3642 17.5411 16.6097V10.0028H21.0772V6.03861H17.5411L17.5597 2ZM4.70861 11.0436C4.70861 10.3178 5.30417 10.0386 6.29056 10.0386C7.705 10.0386 9.49167 10.4667 10.9061 11.2297V6.85611C9.36139 6.24194 7.83528 6 6.29056 6C2.5125 6 0 7.97278 0 11.2669C0 16.4036 7.07222 15.5847 7.07222 17.7994C7.07222 18.6556 6.32778 18.9347 5.28556 18.9347C3.74083 18.9347 1.76806 18.3019 0.204722 17.4458V21.8753C1.93556 22.6197 3.685 22.9361 5.28556 22.9361C9.15667 22.9361 11.8181 21.0192 11.8181 17.6878C11.7994 12.1417 4.70861 13.1281 4.70861 11.0436Z" fill="black"/>
</svg>
