<svg width="32" height="29" viewBox="0 0 32 29" fill="none" xmlns="http://www.w3.org/2000/svg">
<path fill-rule="evenodd" clip-rule="evenodd" d="M0.156584 9.98085L6.56858 1.27685C6.63416 1.18804 6.71742 1.11376 6.8131 1.05868C6.90879 1.00361 7.01484 0.968941 7.12458 0.956855L15.6886 0.00485473C15.7471 -0.00161824 15.8061 -0.00161824 15.8646 0.00485473L24.4286 0.955855C24.5383 0.967941 24.6444 1.00261 24.7401 1.05768C24.8358 1.11276 24.919 1.18704 24.9846 1.27585L31.3976 9.98085C31.5049 10.127 31.5593 10.3052 31.5521 10.4864C31.5448 10.6675 31.4762 10.8408 31.3576 10.9779L16.2316 28.4699C16.1753 28.535 16.1056 28.5873 16.0272 28.6232C15.9489 28.659 15.8637 28.6776 15.7776 28.6776C15.6914 28.6776 15.6063 28.659 15.528 28.6232C15.4496 28.5873 15.3799 28.535 15.3236 28.4699L0.194584 10.9779C0.0760895 10.8407 0.00769721 10.6673 0.000611701 10.4862C-0.00647381 10.305 0.0481676 10.1269 0.155584 9.98085H0.156584ZM17.9826 2.57785L24.0296 8.28986C24.0882 8.34537 24.1622 8.38186 24.2419 8.39452C24.3216 8.40718 24.4033 8.39544 24.4762 8.36082C24.5492 8.3262 24.6099 8.27033 24.6505 8.20055C24.691 8.13077 24.7096 8.05035 24.7036 7.96986L24.4136 3.91585C24.4095 3.86626 24.4241 3.81693 24.4544 3.7775C24.4848 3.73807 24.5288 3.71137 24.5778 3.70262C24.6267 3.69387 24.6772 3.7037 24.7194 3.73019C24.7615 3.75667 24.7922 3.79792 24.8056 3.84585L26.1316 8.48785C26.1762 8.64416 26.2583 8.78723 26.3707 8.90468C26.4831 9.02212 26.6224 9.11039 26.7766 9.16185L29.6066 10.1049C29.6517 10.1197 29.6901 10.1501 29.7149 10.1907C29.7396 10.2313 29.7491 10.2793 29.7417 10.3263C29.7342 10.3732 29.7103 10.4159 29.6742 10.4468C29.638 10.4777 29.5921 10.4947 29.5446 10.4949H26.8246C26.6565 10.495 26.4911 10.5374 26.3438 10.6184C26.1964 10.6993 26.0719 10.816 25.9816 10.9579L18.5676 22.6079C18.5261 22.6714 18.4621 22.7169 18.3884 22.7351C18.3147 22.7533 18.2368 22.7429 18.1705 22.706C18.1042 22.6691 18.0543 22.6084 18.0309 22.5362C18.0076 22.464 18.0124 22.3856 18.0446 22.3169L23.3586 11.3569C23.403 11.2654 23.4234 11.1641 23.4179 11.0625C23.4125 10.961 23.3813 10.8625 23.3273 10.7763C23.2733 10.6901 23.1983 10.6191 23.1093 10.5699C23.0203 10.5206 22.9203 10.4948 22.8186 10.4949H8.73458C8.63289 10.4948 8.53285 10.5206 8.44387 10.5699C8.35489 10.6191 8.27988 10.6901 8.22589 10.7763C8.1719 10.8625 8.14071 10.961 8.13523 11.0625C8.12975 11.1641 8.15018 11.2654 8.19458 11.3569L13.5086 22.3169C13.542 22.3857 13.5478 22.4648 13.5248 22.5378C13.5018 22.6108 13.4517 22.6723 13.3849 22.7096C13.318 22.7469 13.2394 22.7573 13.1652 22.7386C13.091 22.7198 13.0267 22.6734 12.9856 22.6089L5.57158 10.9589C5.48134 10.8167 5.35667 10.6997 5.20913 10.6186C5.06158 10.5374 4.89595 10.4949 4.72758 10.4949H1.92458C1.87706 10.4947 1.83113 10.4777 1.79502 10.4468C1.7589 10.4159 1.73497 10.3732 1.72751 10.3263C1.72005 10.2793 1.72955 10.2313 1.7543 10.1907C1.77905 10.1501 1.81744 10.1197 1.86258 10.1049L4.77058 9.15985C4.92642 9.10908 5.06739 9.02078 5.18108 8.90273C5.29477 8.78468 5.37771 8.64049 5.42258 8.48285L6.74758 3.84585C6.76093 3.79792 6.79168 3.75667 6.83381 3.73019C6.87593 3.7037 6.92642 3.69387 6.97541 3.70262C7.0244 3.71137 7.06837 3.73807 7.09873 3.7775C7.12908 3.81693 7.14365 3.86626 7.13958 3.91585L6.84958 7.96986C6.84361 8.05035 6.86212 8.13077 6.9027 8.20055C6.94328 8.27033 7.00401 8.3262 7.07693 8.36082C7.14985 8.39544 7.23153 8.40718 7.31125 8.39452C7.39097 8.38186 7.46499 8.34537 7.52358 8.28986L13.5706 2.57785C13.6071 2.54096 13.6566 2.51972 13.7085 2.51863C13.7604 2.51754 13.8107 2.53669 13.8488 2.57201C13.8868 2.60734 13.9096 2.65608 13.9124 2.70793C13.9152 2.75978 13.8977 2.81068 13.8636 2.84985L9.80658 7.84285C9.759 7.90151 9.729 7.97243 9.72005 8.04742C9.71109 8.12241 9.72355 8.19841 9.75598 8.26661C9.78841 8.33482 9.83948 8.39245 9.9033 8.43284C9.96711 8.47324 10.0411 8.49473 10.1166 8.49485H21.4366C21.5121 8.49473 21.5861 8.47324 21.6499 8.43284C21.7137 8.39245 21.7648 8.33482 21.7972 8.26661C21.8296 8.19841 21.8421 8.12241 21.8331 8.04742C21.8242 7.97243 21.7942 7.90151 21.7466 7.84285L17.6896 2.84985C17.6555 2.81068 17.638 2.75978 17.6408 2.70793C17.6435 2.65608 17.6664 2.60734 17.7044 2.57201C17.7425 2.53669 17.7928 2.51754 17.8447 2.51863C17.8966 2.51972 17.946 2.54096 17.9826 2.57785Z" fill="black"/>
</svg>
