<svg width="93" height="28" viewBox="0 0 93 28" fill="none" xmlns="http://www.w3.org/2000/svg">
<path d="M47.5886 22.2404H44.8249L40.0727 15.6682L35.2869 22.2404H32.5232L38.6572 13.7808L33.0288 5.99522H35.7924L40.0727 11.8934L44.3531 5.99522H47.1167L41.4546 13.7808L47.5886 22.2404ZM61.9461 17.623C61.9461 19.0386 61.4743 20.1845 60.5306 20.9934C59.5869 21.8023 58.2388 22.2404 56.4862 22.2404H48.903V14.9941H45.263L46.7797 12.9045H48.903V5.99522H56.1829C57.8343 5.99522 59.0814 6.39967 59.9577 7.17485C60.8339 7.95004 61.2721 8.99485 61.2721 10.2419C61.2721 11.7923 60.5643 13.0056 59.1488 13.7808C60.0588 14.1178 60.7328 14.6571 61.2047 15.2975C61.7102 15.9378 61.9461 16.7467 61.9461 17.623ZM51.3633 12.9382H56.0144C56.9581 12.9382 57.6658 12.736 58.1377 12.2978C58.6095 11.8934 58.8454 11.253 58.8454 10.4104C58.8454 9.70263 58.6095 9.12967 58.104 8.72523C57.6321 8.32078 56.9244 8.11856 56.0144 8.11856H51.3633V12.9382ZM59.4521 17.5556C59.4521 16.713 59.1825 16.0389 58.6769 15.6345C58.1714 15.1963 57.3962 14.9941 56.3851 14.9941H51.3633V20.0834H56.3514C57.3288 20.0834 58.104 19.8475 58.6432 19.443C59.1825 19.0049 59.4521 18.3645 59.4521 17.5556ZM78.6629 14.1178C78.6629 15.3649 78.4944 16.5445 78.1237 17.5556C77.753 18.5667 77.2137 19.4767 76.5059 20.2519C75.7645 21.0271 74.9219 21.6338 73.9782 22.0045C73.0345 22.4089 71.956 22.5775 70.7427 22.5775C69.5631 22.5775 68.4509 22.3752 67.5072 22.0045C66.5635 21.6001 65.7209 21.0271 64.9794 20.2519C64.238 19.4767 63.6987 18.5667 63.328 17.5556C62.9572 16.5445 62.7887 15.3649 62.7887 14.1178C62.7887 12.8708 62.9572 11.6912 63.328 10.68C63.6987 9.66893 64.238 8.72523 64.9794 7.95004C65.6872 7.17485 66.5298 6.60189 67.5072 6.19744C68.4509 5.8267 69.5631 5.62448 70.7427 5.62448C71.9223 5.62448 73.0008 5.8267 73.9782 6.19744C74.9219 6.56819 75.7982 7.17485 76.5059 7.95004C77.2137 8.72523 77.7867 9.66893 78.1237 10.68C78.4607 11.6912 78.6629 12.8371 78.6629 14.1178ZM65.3502 14.1178C65.3502 16.0389 65.8557 17.5556 66.8331 18.6678C67.8105 19.7801 69.0912 20.353 70.7427 20.353C72.3604 20.353 73.6749 19.7801 74.6523 18.6678C75.6297 17.5556 76.1015 16.0389 76.1015 14.1178C76.1015 12.1967 75.6297 10.6463 74.6523 9.53412C73.6749 8.42189 72.3604 7.84893 70.7427 7.84893C69.1249 7.84893 67.8105 8.42189 66.8331 9.53412C65.8557 10.68 65.3502 12.1967 65.3502 14.1178ZM86.4821 13.7808L92.1442 5.99522H89.3806L85.1003 11.8934L80.82 5.99522H78.0563L83.7184 13.7808L77.5844 22.2404H80.3481L85.1003 15.6682L89.8861 22.2404H92.6498L86.4821 13.7808ZM13.9126 11.2272C18.005 14.3348 24.9384 21.969 22.8415 24.1308C20.4401 26.2252 17.3286 27.475 13.9126 27.475C10.4966 27.475 7.35125 26.2252 4.98375 24.1308C2.853 21.969 9.82022 14.3348 13.8788 11.2609C13.8788 11.2272 13.9126 11.2272 13.9126 11.2272ZM13.9126 0.35022C11.1731 0.35022 8.90704 1.09336 6.84393 2.3432C6.81011 2.3432 6.81011 2.37698 6.81011 2.41076C6.81011 2.44454 6.84393 2.44454 6.87775 2.44454C9.51582 1.87029 13.5068 4.1335 13.8788 4.36996H13.9126H13.9464C14.3185 4.1335 18.3094 1.87029 20.9475 2.44454C20.9813 2.44454 21.0151 2.44454 21.0151 2.41076C21.0151 2.37698 21.0151 2.3432 20.9813 2.3432C18.9182 1.09336 16.6521 0.35022 13.9126 0.35022ZM4.40879 4.23484C4.37497 4.23484 4.37497 4.26862 4.34115 4.26862C1.87218 6.73451 0.35022 10.1462 0.35022 13.8957C0.35022 16.9696 1.39868 19.8409 3.12358 22.1041C3.12358 22.1379 3.1574 22.1379 3.19122 22.1379C3.22504 22.1379 3.22504 22.1041 3.19122 22.0703C2.14275 18.8613 7.45272 11.1258 10.1923 7.883L10.2261 7.84922C10.2261 7.81544 10.2261 7.81544 10.1923 7.81544C6.03222 3.69437 4.64554 4.1335 4.40879 4.23484ZM17.633 7.78166L17.5991 7.81544C17.5991 7.81544 17.5991 7.84922 17.633 7.84922C20.3725 11.092 25.6486 18.8275 24.634 22.0365V22.1041C24.6678 22.1041 24.7016 22.1041 24.7016 22.0703C26.4265 19.8071 27.475 16.9359 27.475 13.8619C27.475 10.1124 25.953 6.70073 23.4502 4.23484C23.4164 4.20106 23.4164 4.20106 23.3826 4.20106C23.1797 4.1335 21.793 3.69437 17.633 7.78166Z" fill="black"/>
</svg>
